<svg width="25" height="25" viewBox="0 0 25 25" fill="none" xmlns="http://www.w3.org/2000/svg">
<g clip-path="url(#clip0_31_562)">
<path fill-rule="evenodd" clip-rule="evenodd" d="M12.2189 0.718613C9.37012 0.720091 6.61476 1.72907 4.4455 3.56514C2.27624 5.4012 0.834531 7.94462 0.378172 10.7406C-0.0781863 13.5366 0.480555 16.4028 1.9545 18.8268C3.42844 21.2507 5.72147 23.0744 8.42356 23.9716C9.01968 24.0822 9.24422 23.7128 9.24422 23.3986C9.24422 23.0845 9.2323 22.1736 9.22832 21.1778C5.89002 21.899 5.18461 19.7691 5.18461 19.7691C4.64015 18.3861 3.85326 18.0225 3.85326 18.0225C2.76434 17.2836 3.93474 17.2974 3.93474 17.2974C5.1409 17.3824 5.77478 18.5283 5.77478 18.5283C6.84383 20.352 8.58252 19.8244 9.26608 19.5162C9.37338 18.7437 9.68536 18.2181 10.0291 17.9198C7.36246 17.6194 4.56067 16.596 4.56067 12.024C4.54414 10.8383 4.98665 9.69166 5.79664 8.82129C5.67344 8.52098 5.26211 7.30785 5.91387 5.66004C5.91387 5.66004 6.92133 5.33997 9.21443 6.88305C11.1813 6.34824 13.2565 6.34824 15.2234 6.88305C17.5145 5.33997 18.5199 5.66004 18.5199 5.66004C19.1737 7.30389 18.7624 8.51702 18.6392 8.82129C19.4517 9.6918 19.8952 10.8405 19.8771 12.028C19.8771 16.6098 17.0694 17.6194 14.3987 17.9138C14.8279 18.2853 15.2114 19.0104 15.2114 20.1247C15.2114 21.7212 15.1975 23.0054 15.1975 23.3986C15.1975 23.7167 15.4141 24.0882 16.0222 23.9716C18.7246 23.0743 21.0178 21.2503 22.4917 18.8259C23.9657 16.4016 24.5241 13.5349 24.0672 10.7387C23.6104 7.94242 22.1679 5.39897 19.998 3.56322C17.828 1.72747 15.072 0.719154 12.2229 0.718613H12.2189Z" fill="#B5965A"/>
<path d="M8.24646 20.1939C8.24646 20.2907 8.13519 20.3737 7.99212 20.3757C7.84905 20.3776 7.73181 20.2986 7.73181 20.2018C7.73181 20.105 7.84308 20.022 7.98615 20.02C8.12922 20.018 8.24646 20.0951 8.24646 20.1939Z" fill="#B5965A"/>
<path d="M9.16052 20.0417C9.17841 20.1386 9.07905 20.2393 8.93598 20.263C8.79291 20.2867 8.66773 20.2294 8.64984 20.1346C8.63196 20.0398 8.73529 19.937 8.87438 19.9113C9.01348 19.8857 9.14264 19.9449 9.16052 20.0417Z" fill="#B5965A"/>
<path d="M7.2648 20.1267C7.235 20.2196 7.09987 20.2611 6.96475 20.2215C6.82963 20.182 6.74021 20.0714 6.76604 19.9765C6.79187 19.8817 6.92899 19.8382 7.06609 19.8817C7.2032 19.9252 7.29063 20.0299 7.2648 20.1267Z" fill="#B5965A"/>
<path d="M6.36462 19.7395C6.29905 19.8126 6.16592 19.7928 6.05663 19.694C5.94734 19.5952 5.9215 19.4609 5.98707 19.3897C6.05264 19.3186 6.18578 19.3384 6.29904 19.4352C6.41231 19.532 6.43417 19.6683 6.36462 19.7395V19.7395Z" fill="#B5965A"/>
<path d="M5.72287 19.0756C5.64935 19.127 5.52416 19.0756 5.45461 18.9729C5.43538 18.9544 5.42009 18.9323 5.40964 18.9079C5.39919 18.8834 5.3938 18.8572 5.3938 18.8306C5.3938 18.804 5.39919 18.7778 5.40964 18.7533C5.42009 18.7289 5.43538 18.7068 5.45461 18.6883C5.52813 18.639 5.65333 18.6883 5.72287 18.7891C5.79242 18.8899 5.79441 19.0242 5.72287 19.0756V19.0756Z" fill="#B5965A"/>
<path d="M5.24998 18.39C5.20883 18.4106 5.16175 18.4164 5.1168 18.4063C5.07185 18.3962 5.03183 18.3709 5.00358 18.3347C4.92609 18.2517 4.91018 18.1371 4.96979 18.0857C5.02941 18.0344 5.13672 18.0581 5.21421 18.1411C5.29171 18.224 5.30959 18.3386 5.24998 18.39Z" fill="#B5965A"/>
<path d="M4.76306 17.8506C4.73723 17.9099 4.64185 17.9277 4.56436 17.8862C4.48686 17.8447 4.42924 17.7676 4.45706 17.7064C4.48488 17.6451 4.57827 17.6293 4.65577 17.6708C4.73326 17.7123 4.79287 17.7913 4.76306 17.8506Z" fill="#B5965A"/>
</g>
<defs>
<clipPath id="clip0_31_562">
<rect width="24" height="24" fill="white" transform="translate(0.218628 0.218613)"/>
</clipPath>
</defs>
</svg>
